<mxfile host="app.diagrams.net" agent="Mozilla/5.0 (Windows NT 10.0; Win64; x64) AppleWebKit/537.36 (KHTML, like Gecko) Chrome/134.0.0.0 Safari/537.36" version="26.2.2">
  <diagram name="Page-1" id="_K_gauGgJNnXnSBPDz3d">
    <mxGraphModel dx="1150" dy="552" grid="1" gridSize="10" guides="1" tooltips="1" connect="1" arrows="1" fold="1" page="1" pageScale="1" pageWidth="827" pageHeight="1169" math="0" shadow="0">
      <root>
        <mxCell id="0" />
        <mxCell id="1" parent="0" />
        <mxCell id="w0EtMBZCWcp6WH1xbfHe-1" value="User" style="rounded=0;whiteSpace=wrap;html=1;" vertex="1" parent="1">
          <mxGeometry x="360" y="360" width="80" height="40" as="geometry" />
        </mxCell>
        <mxCell id="w0EtMBZCWcp6WH1xbfHe-2" value="Load&lt;div&gt;Word&lt;/div&gt;" style="ellipse;whiteSpace=wrap;html=1;aspect=fixed;" vertex="1" parent="1">
          <mxGeometry x="760" y="340" width="80" height="80" as="geometry" />
        </mxCell>
        <mxCell id="w0EtMBZCWcp6WH1xbfHe-3" value="Choose&lt;br&gt;&lt;div&gt;Word&lt;/div&gt;" style="ellipse;whiteSpace=wrap;html=1;aspect=fixed;" vertex="1" parent="1">
          <mxGeometry x="520" y="120" width="80" height="80" as="geometry" />
        </mxCell>
        <mxCell id="w0EtMBZCWcp6WH1xbfHe-4" value="Display&lt;br&gt;&lt;div&gt;Word&lt;/div&gt;" style="ellipse;whiteSpace=wrap;html=1;aspect=fixed;" vertex="1" parent="1">
          <mxGeometry x="480" y="240" width="80" height="80" as="geometry" />
        </mxCell>
        <mxCell id="w0EtMBZCWcp6WH1xbfHe-5" value="Add&amp;nbsp;&lt;div&gt;Custom&lt;br&gt;&lt;div&gt;Word&lt;/div&gt;&lt;/div&gt;" style="ellipse;whiteSpace=wrap;html=1;aspect=fixed;" vertex="1" parent="1">
          <mxGeometry x="520" y="560" width="80" height="80" as="geometry" />
        </mxCell>
        <mxCell id="w0EtMBZCWcp6WH1xbfHe-6" value="Play Hangman" style="ellipse;whiteSpace=wrap;html=1;aspect=fixed;" vertex="1" parent="1">
          <mxGeometry x="600" y="340" width="80" height="80" as="geometry" />
        </mxCell>
        <mxCell id="w0EtMBZCWcp6WH1xbfHe-7" value="Game&lt;div&gt;&lt;span style=&quot;background-color: transparent; color: light-dark(rgb(0, 0, 0), rgb(255, 255, 255));&quot;&gt;Result&lt;/span&gt;&lt;/div&gt;" style="ellipse;whiteSpace=wrap;html=1;aspect=fixed;" vertex="1" parent="1">
          <mxGeometry x="480" y="440" width="80" height="80" as="geometry" />
        </mxCell>
        <mxCell id="w0EtMBZCWcp6WH1xbfHe-13" value="sends difficulty choice" style="curved=1;endArrow=classic;html=1;rounded=0;exitX=0.5;exitY=0;exitDx=0;exitDy=0;entryX=0;entryY=0.5;entryDx=0;entryDy=0;" edge="1" parent="1" source="w0EtMBZCWcp6WH1xbfHe-1" target="w0EtMBZCWcp6WH1xbfHe-3">
          <mxGeometry x="-0.375" y="-10" width="50" height="50" relative="1" as="geometry">
            <mxPoint x="390" y="540" as="sourcePoint" />
            <mxPoint x="490" y="150" as="targetPoint" />
            <Array as="points">
              <mxPoint x="400" y="160" />
            </Array>
            <mxPoint as="offset" />
          </mxGeometry>
        </mxCell>
        <mxCell id="w0EtMBZCWcp6WH1xbfHe-14" value="&amp;nbsp;receives game&amp;nbsp;&lt;div&gt;state updates&lt;br&gt;&lt;/div&gt;" style="curved=1;endArrow=classic;html=1;rounded=0;" edge="1" parent="1" source="w0EtMBZCWcp6WH1xbfHe-1" target="w0EtMBZCWcp6WH1xbfHe-6">
          <mxGeometry x="-0.0366" y="10" width="50" height="50" relative="1" as="geometry">
            <mxPoint x="390" y="540" as="sourcePoint" />
            <mxPoint x="440" y="490" as="targetPoint" />
            <Array as="points">
              <mxPoint x="520" y="410" />
            </Array>
            <mxPoint as="offset" />
          </mxGeometry>
        </mxCell>
        <mxCell id="w0EtMBZCWcp6WH1xbfHe-15" value="sends a new&lt;div&gt;word&amp;nbsp;&lt;span style=&quot;background-color: light-dark(#ffffff, var(--ge-dark-color, #121212)); color: light-dark(rgb(0, 0, 0), rgb(255, 255, 255));&quot;&gt;&amp;amp; difficulty&lt;/span&gt;&lt;/div&gt;" style="curved=1;endArrow=classic;html=1;rounded=0;exitX=0.5;exitY=1;exitDx=0;exitDy=0;entryX=0;entryY=0;entryDx=0;entryDy=0;" edge="1" parent="1" source="w0EtMBZCWcp6WH1xbfHe-1" target="w0EtMBZCWcp6WH1xbfHe-5">
          <mxGeometry x="0.5939" y="22" width="50" height="50" relative="1" as="geometry">
            <mxPoint x="450" y="390" as="sourcePoint" />
            <mxPoint x="500" y="610" as="targetPoint" />
            <Array as="points">
              <mxPoint x="400" y="572" />
            </Array>
            <mxPoint as="offset" />
          </mxGeometry>
        </mxCell>
        <mxCell id="w0EtMBZCWcp6WH1xbfHe-18" value="receives&amp;nbsp;&lt;div&gt;confirmation&amp;nbsp;&lt;div&gt;of word &lt;span style=&quot;background-color: light-dark(#ffffff, var(--ge-dark-color, #121212)); color: light-dark(rgb(0, 0, 0), rgb(255, 255, 255));&quot;&gt;added&lt;/span&gt;&lt;/div&gt;&lt;/div&gt;" style="curved=1;endArrow=classic;html=1;rounded=0;entryX=0.25;entryY=1;entryDx=0;entryDy=0;exitX=0;exitY=0.5;exitDx=0;exitDy=0;" edge="1" parent="1" source="w0EtMBZCWcp6WH1xbfHe-5" target="w0EtMBZCWcp6WH1xbfHe-1">
          <mxGeometry x="0.5294" y="10" width="50" height="50" relative="1" as="geometry">
            <mxPoint x="460" y="660" as="sourcePoint" />
            <mxPoint x="460" y="430" as="targetPoint" />
            <Array as="points">
              <mxPoint x="380" y="600" />
            </Array>
            <mxPoint as="offset" />
          </mxGeometry>
        </mxCell>
        <mxCell id="w0EtMBZCWcp6WH1xbfHe-19" value="&amp;nbsp;sends&amp;nbsp;&lt;span style=&quot;background-color: light-dark(#ffffff, var(--ge-dark-color, #121212)); color: light-dark(rgb(0, 0, 0), rgb(255, 255, 255));&quot;&gt;guesses&amp;nbsp;&lt;/span&gt;" style="curved=1;endArrow=classic;html=1;rounded=0;" edge="1" parent="1" source="w0EtMBZCWcp6WH1xbfHe-6" target="w0EtMBZCWcp6WH1xbfHe-1">
          <mxGeometry x="0.0366" y="10" width="50" height="50" relative="1" as="geometry">
            <mxPoint x="390" y="540" as="sourcePoint" />
            <mxPoint x="440" y="490" as="targetPoint" />
            <Array as="points">
              <mxPoint x="520" y="350" />
            </Array>
            <mxPoint as="offset" />
          </mxGeometry>
        </mxCell>
        <mxCell id="w0EtMBZCWcp6WH1xbfHe-21" value="sends word" style="curved=1;endArrow=classic;html=1;rounded=0;entryX=1;entryY=0;entryDx=0;entryDy=0;" edge="1" parent="1" source="w0EtMBZCWcp6WH1xbfHe-2" target="w0EtMBZCWcp6WH1xbfHe-3">
          <mxGeometry x="0.3722" y="28" width="50" height="50" relative="1" as="geometry">
            <mxPoint x="390" y="540" as="sourcePoint" />
            <mxPoint x="670" y="140" as="targetPoint" />
            <Array as="points">
              <mxPoint x="800" y="132" />
            </Array>
            <mxPoint as="offset" />
          </mxGeometry>
        </mxCell>
        <mxCell id="w0EtMBZCWcp6WH1xbfHe-22" value="provides&amp;nbsp;&lt;div&gt;hint for&amp;nbsp;&lt;/div&gt;&lt;div&gt;word&lt;br&gt;&lt;/div&gt;" style="curved=1;endArrow=classic;html=1;rounded=0;exitX=0;exitY=0.5;exitDx=0;exitDy=0;entryX=1;entryY=0.5;entryDx=0;entryDy=0;" edge="1" parent="1" source="w0EtMBZCWcp6WH1xbfHe-2" target="w0EtMBZCWcp6WH1xbfHe-6">
          <mxGeometry x="0.1" y="9" width="50" height="50" relative="1" as="geometry">
            <mxPoint x="390" y="540" as="sourcePoint" />
            <mxPoint x="440" y="490" as="targetPoint" />
            <Array as="points">
              <mxPoint x="720" y="360" />
            </Array>
            <mxPoint as="offset" />
          </mxGeometry>
        </mxCell>
        <mxCell id="w0EtMBZCWcp6WH1xbfHe-23" value="sends&amp;nbsp;&lt;div&gt;selected word&lt;br&gt;&lt;/div&gt;" style="curved=1;endArrow=classic;html=1;rounded=0;entryX=1;entryY=0;entryDx=0;entryDy=0;exitX=1;exitY=1;exitDx=0;exitDy=0;" edge="1" parent="1" source="w0EtMBZCWcp6WH1xbfHe-3" target="w0EtMBZCWcp6WH1xbfHe-6">
          <mxGeometry x="-0.2274" y="-23" width="50" height="50" relative="1" as="geometry">
            <mxPoint x="390" y="540" as="sourcePoint" />
            <mxPoint x="440" y="490" as="targetPoint" />
            <Array as="points">
              <mxPoint x="680" y="240" />
            </Array>
            <mxPoint as="offset" />
          </mxGeometry>
        </mxCell>
        <mxCell id="w0EtMBZCWcp6WH1xbfHe-24" value="sends&amp;nbsp;&lt;div&gt;selected&amp;nbsp;&lt;span style=&quot;background-color: light-dark(#ffffff, var(--ge-dark-color, #121212)); color: light-dark(rgb(0, 0, 0), rgb(255, 255, 255));&quot;&gt;word&lt;/span&gt;&lt;/div&gt;" style="curved=1;endArrow=classic;html=1;rounded=0;exitX=0;exitY=1;exitDx=0;exitDy=0;entryX=0.5;entryY=0;entryDx=0;entryDy=0;" edge="1" parent="1" source="w0EtMBZCWcp6WH1xbfHe-3" target="w0EtMBZCWcp6WH1xbfHe-4">
          <mxGeometry x="-0.0607" y="-10" width="50" height="50" relative="1" as="geometry">
            <mxPoint x="610" y="630" as="sourcePoint" />
            <mxPoint x="660" y="580" as="targetPoint" />
            <Array as="points">
              <mxPoint x="520" y="200" />
            </Array>
            <mxPoint as="offset" />
          </mxGeometry>
        </mxCell>
        <mxCell id="w0EtMBZCWcp6WH1xbfHe-26" value="sends&amp;nbsp;&lt;div&gt;updated&amp;nbsp;&lt;/div&gt;&lt;div&gt;&lt;span style=&quot;background-color: light-dark(#ffffff, var(--ge-dark-color, #121212)); color: light-dark(rgb(0, 0, 0), rgb(255, 255, 255));&quot;&gt;word&amp;nbsp;&lt;/span&gt;&lt;/div&gt;&lt;div&gt;&lt;span style=&quot;background-color: light-dark(#ffffff, var(--ge-dark-color, #121212)); color: light-dark(rgb(0, 0, 0), rgb(255, 255, 255));&quot;&gt;display&lt;/span&gt;&lt;/div&gt;" style="curved=1;endArrow=classic;html=1;rounded=0;entryX=0;entryY=0;entryDx=0;entryDy=0;exitX=1;exitY=1;exitDx=0;exitDy=0;" edge="1" parent="1" source="w0EtMBZCWcp6WH1xbfHe-4" target="w0EtMBZCWcp6WH1xbfHe-6">
          <mxGeometry x="-0.4106" y="-12" width="50" height="50" relative="1" as="geometry">
            <mxPoint x="630" y="480" as="sourcePoint" />
            <mxPoint x="680" y="430" as="targetPoint" />
            <Array as="points">
              <mxPoint x="612" y="308" />
            </Array>
            <mxPoint as="offset" />
          </mxGeometry>
        </mxCell>
        <mxCell id="w0EtMBZCWcp6WH1xbfHe-28" value="receives&amp;nbsp;&lt;div&gt;final&amp;nbsp;&lt;span style=&quot;background-color: light-dark(#ffffff, var(--ge-dark-color, #121212)); color: light-dark(rgb(0, 0, 0), rgb(255, 255, 255));&quot;&gt;score&amp;nbsp;&lt;/span&gt;&lt;div&gt;&lt;div&gt;&amp;amp; win/loss&lt;/div&gt;&lt;div&gt;&amp;nbsp;message&lt;br&gt;&lt;/div&gt;&lt;/div&gt;&lt;/div&gt;" style="curved=1;endArrow=classic;html=1;rounded=0;entryX=0.75;entryY=1;entryDx=0;entryDy=0;exitX=0;exitY=0.5;exitDx=0;exitDy=0;" edge="1" parent="1" source="w0EtMBZCWcp6WH1xbfHe-7" target="w0EtMBZCWcp6WH1xbfHe-1">
          <mxGeometry x="0.2857" y="-20" width="50" height="50" relative="1" as="geometry">
            <mxPoint x="630" y="480" as="sourcePoint" />
            <mxPoint x="680" y="430" as="targetPoint" />
            <Array as="points">
              <mxPoint x="420" y="480" />
            </Array>
            <mxPoint as="offset" />
          </mxGeometry>
        </mxCell>
        <mxCell id="w0EtMBZCWcp6WH1xbfHe-29" value="sends final&amp;nbsp;&lt;div&gt;game state&lt;br&gt;&lt;/div&gt;" style="curved=1;endArrow=classic;html=1;rounded=0;entryX=1;entryY=0.5;entryDx=0;entryDy=0;exitX=0.5;exitY=1;exitDx=0;exitDy=0;" edge="1" parent="1" source="w0EtMBZCWcp6WH1xbfHe-6" target="w0EtMBZCWcp6WH1xbfHe-7">
          <mxGeometry x="-0.4286" y="-20" width="50" height="50" relative="1" as="geometry">
            <mxPoint x="630" y="480" as="sourcePoint" />
            <mxPoint x="680" y="430" as="targetPoint" />
            <Array as="points">
              <mxPoint x="640" y="480" />
            </Array>
            <mxPoint as="offset" />
          </mxGeometry>
        </mxCell>
        <mxCell id="w0EtMBZCWcp6WH1xbfHe-30" value="" style="group" vertex="1" connectable="0" parent="1">
          <mxGeometry x="760" y="560" width="80" height="80" as="geometry" />
        </mxCell>
        <mxCell id="w0EtMBZCWcp6WH1xbfHe-8" value="" style="endArrow=none;html=1;rounded=0;" edge="1" parent="w0EtMBZCWcp6WH1xbfHe-30">
          <mxGeometry width="50" height="50" relative="1" as="geometry">
            <mxPoint as="sourcePoint" />
            <mxPoint x="80" as="targetPoint" />
          </mxGeometry>
        </mxCell>
        <mxCell id="w0EtMBZCWcp6WH1xbfHe-9" value="" style="endArrow=none;html=1;rounded=0;" edge="1" parent="w0EtMBZCWcp6WH1xbfHe-30">
          <mxGeometry width="50" height="50" relative="1" as="geometry">
            <mxPoint y="80" as="sourcePoint" />
            <mxPoint x="80" y="80" as="targetPoint" />
          </mxGeometry>
        </mxCell>
        <mxCell id="w0EtMBZCWcp6WH1xbfHe-10" value="" style="endArrow=none;html=1;rounded=0;" edge="1" parent="w0EtMBZCWcp6WH1xbfHe-30">
          <mxGeometry width="50" height="50" relative="1" as="geometry">
            <mxPoint y="80" as="sourcePoint" />
            <mxPoint as="targetPoint" />
          </mxGeometry>
        </mxCell>
        <mxCell id="w0EtMBZCWcp6WH1xbfHe-11" value="Custom&lt;div&gt;Word&lt;/div&gt;&lt;div&gt;File&lt;/div&gt;" style="text;html=1;align=center;verticalAlign=middle;whiteSpace=wrap;rounded=0;" vertex="1" parent="w0EtMBZCWcp6WH1xbfHe-30">
          <mxGeometry x="10" y="25" width="60" height="30" as="geometry" />
        </mxCell>
        <mxCell id="w0EtMBZCWcp6WH1xbfHe-31" value="sends new&amp;nbsp;&lt;div&gt;w&lt;span style=&quot;background-color: light-dark(#ffffff, var(--ge-dark-color, #121212)); color: light-dark(rgb(0, 0, 0), rgb(255, 255, 255));&quot;&gt;ord&amp;nbsp;&lt;/span&gt;&lt;span style=&quot;background-color: light-dark(#ffffff, var(--ge-dark-color, #121212)); color: light-dark(rgb(0, 0, 0), rgb(255, 255, 255));&quot;&gt;for&amp;nbsp;&lt;/span&gt;&lt;/div&gt;&lt;div&gt;&lt;span style=&quot;background-color: light-dark(#ffffff, var(--ge-dark-color, #121212)); color: light-dark(rgb(0, 0, 0), rgb(255, 255, 255));&quot;&gt;storage&lt;/span&gt;&lt;/div&gt;" style="curved=1;endArrow=classic;html=1;rounded=0;exitX=1;exitY=0.5;exitDx=0;exitDy=0;" edge="1" parent="1" source="w0EtMBZCWcp6WH1xbfHe-5">
          <mxGeometry x="0.1" y="18" width="50" height="50" relative="1" as="geometry">
            <mxPoint x="630" y="480" as="sourcePoint" />
            <mxPoint x="760" y="600" as="targetPoint" />
            <Array as="points">
              <mxPoint x="680" y="640" />
            </Array>
            <mxPoint as="offset" />
          </mxGeometry>
        </mxCell>
        <mxCell id="w0EtMBZCWcp6WH1xbfHe-33" value="sends&amp;nbsp;&lt;div&gt;words&lt;/div&gt;" style="curved=1;endArrow=classic;html=1;rounded=0;" edge="1" parent="1" target="w0EtMBZCWcp6WH1xbfHe-2">
          <mxGeometry width="50" height="50" relative="1" as="geometry">
            <mxPoint x="820" y="560" as="sourcePoint" />
            <mxPoint x="640" y="400" as="targetPoint" />
            <Array as="points">
              <mxPoint x="840" y="480" />
            </Array>
          </mxGeometry>
        </mxCell>
        <mxCell id="w0EtMBZCWcp6WH1xbfHe-35" value="requests word" style="curved=1;endArrow=classic;html=1;rounded=0;exitX=1;exitY=0.5;exitDx=0;exitDy=0;entryX=0;entryY=0;entryDx=0;entryDy=0;" edge="1" parent="1" source="w0EtMBZCWcp6WH1xbfHe-3" target="w0EtMBZCWcp6WH1xbfHe-2">
          <mxGeometry x="-0.3365" y="-40" width="50" height="50" relative="1" as="geometry">
            <mxPoint x="590" y="350" as="sourcePoint" />
            <mxPoint x="640" y="300" as="targetPoint" />
            <Array as="points">
              <mxPoint x="770" y="160" />
            </Array>
            <mxPoint as="offset" />
          </mxGeometry>
        </mxCell>
        <mxCell id="w0EtMBZCWcp6WH1xbfHe-25" value="&amp;nbsp;sends&amp;nbsp;&lt;div&gt;guessed&amp;nbsp;&lt;/div&gt;&lt;div&gt;letters&lt;br&gt;&lt;/div&gt;" style="curved=1;endArrow=classic;html=1;rounded=0;entryX=1;entryY=0.5;entryDx=0;entryDy=0;exitX=0.5;exitY=0;exitDx=0;exitDy=0;" edge="1" parent="1" source="w0EtMBZCWcp6WH1xbfHe-6" target="w0EtMBZCWcp6WH1xbfHe-4">
          <mxGeometry x="-0.2857" y="10" width="50" height="50" relative="1" as="geometry">
            <mxPoint x="630" y="360" as="sourcePoint" />
            <mxPoint x="680" y="310" as="targetPoint" />
            <Array as="points">
              <mxPoint x="640" y="280" />
            </Array>
            <mxPoint as="offset" />
          </mxGeometry>
        </mxCell>
        <mxCell id="w0EtMBZCWcp6WH1xbfHe-39" value="requests&lt;div&gt;words&lt;/div&gt;" style="curved=1;endArrow=classic;html=1;rounded=0;" edge="1" parent="1" source="w0EtMBZCWcp6WH1xbfHe-2">
          <mxGeometry width="50" height="50" relative="1" as="geometry">
            <mxPoint x="590" y="480" as="sourcePoint" />
            <mxPoint x="780" y="560" as="targetPoint" />
            <Array as="points">
              <mxPoint x="760" y="480" />
            </Array>
          </mxGeometry>
        </mxCell>
      </root>
    </mxGraphModel>
  </diagram>
</mxfile>
